<?xml version="1.0" standalone="no"?>
<!DOCTYPE svg PUBLIC "-//W3C//DTD SVG 20010904//EN"
 "http://www.w3.org/TR/2001/REC-SVG-20010904/DTD/svg10.dtd">
<svg version="1.0" xmlns="http://www.w3.org/2000/svg"
 width="335.000000pt" height="335.000000pt" viewBox="0 0 335.000000 335.000000"
 preserveAspectRatio="xMidYMid meet">
<metadata>
Created by potrace 1.11, written by Peter Selinger 2001-2013
</metadata>
<g transform="translate(0.000000,335.000000) scale(0.100000,-0.100000)"
fill="#000000" stroke="none">
<path d="M1610 3010 c-11 -11 -21 -35 -21 -52 -3 -65 -4 -76 -10 -82 -3 -3
-11 11 -17 32 -14 47 -40 72 -78 76 -29 3 -35 2 -364 -89 -213 -58 -414 -113
-440 -120 -8 -2 -15 -4 -15 -5 0 -1 -8 -3 -17 -5 -43 -8 -95 -29 -110 -45 -14
-15 -24 -46 -18 -60 1 -3 3 -16 6 -30 4 -22 32 -116 90 -304 13 -40 13 -50 2
-57 -7 -5 -19 -7 -25 -4 -7 2 -13 0 -13 -5 0 -6 -7 -10 -14 -10 -8 0 -27 -11
-42 -25 -31 -29 -53 -101 -59 -194 -3 -45 -9 -67 -22 -77 -14 -11 -14 -13 -2
-9 9 4 16 0 16 -8 0 -7 -13 -14 -29 -15 -20 -2 -27 1 -23 9 5 8 1 8 -14 -1
-12 -6 -32 -8 -44 -4 -30 10 -195 12 -235 3 -48 -10 -94 -68 -83 -104 2 -5 5
-30 8 -55 2 -25 11 -58 19 -74 18 -36 18 -41 0 -27 -11 9 -16 9 -22 0 -4 -7
-3 -9 3 -6 14 9 37 -19 27 -34 -5 -8 -3 -9 6 -4 10 6 12 3 8 -13 -4 -12 -3
-20 1 -18 8 6 34 -84 26 -92 -2 -3 3 -11 13 -19 16 -14 16 -14 -3 -9 -20 6
-20 6 -1 -9 15 -11 16 -15 5 -16 -8 0 -6 -4 6 -9 13 -6 15 -9 5 -9 -12 -1 -12
-3 -2 -10 7 -4 16 -23 19 -42 3 -19 10 -37 16 -41 9 -6 8 -8 -1 -8 -10 0 -10
-3 1 -15 9 -8 14 -23 13 -32 -2 -10 0 -20 4 -23 5 -3 10 -16 11 -30 2 -14 6
-27 9 -30 10 -10 28 -70 19 -64 -5 3 -9 1 -9 -5 0 -5 5 -11 12 -13 6 -2 13
-11 14 -19 2 -7 5 -25 8 -38 3 -14 1 -30 -5 -37 -8 -9 -5 -11 13 -7 18 4 20 3
8 -6 -12 -8 -12 -11 -1 -11 10 0 11 -3 2 -14 -9 -11 -9 -16 0 -22 8 -5 9 -3 4
6 -6 9 -4 11 4 5 7 -4 11 -16 8 -26 -3 -11 -1 -19 4 -19 5 0 9 -11 9 -24 0
-13 6 -26 13 -29 9 -3 8 -8 -3 -22 -8 -10 -10 -16 -4 -12 16 10 25 -18 11 -33
-9 -10 -9 -11 0 -6 6 3 14 2 18 -4 3 -5 0 -10 -7 -10 -7 0 -2 -7 10 -16 13 -9
21 -22 18 -30 -3 -8 -1 -14 5 -14 6 0 9 -7 5 -15 -3 -8 -2 -14 2 -14 21 3 32
-2 26 -13 -5 -7 -2 -9 9 -5 9 3 18 0 21 -9 3 -9 10 -13 15 -9 5 3 12 1 15 -3
3 -5 17 -7 31 -4 15 2 25 0 25 -7 0 -8 5 -9 19 -1 13 6 22 7 26 0 3 -5 13 -6
23 -3 15 6 15 5 3 -11 -11 -13 -16 -14 -22 -4 -5 7 -9 9 -10 3 -6 -39 -5 -54
2 -49 4 2 6 12 3 22 -5 14 -3 14 10 -2 15 -18 21 -13 18 15 -1 3 10 11 24 18
14 6 23 7 19 2 -3 -5 -1 -12 5 -16 5 -3 10 -2 10 3 0 5 7 9 15 9 21 0 4 -16
-23 -22 -30 -5 -43 -15 -37 -26 10 -15 25 -10 25 8 0 9 3 13 6 10 4 -3 15 -2
26 4 29 15 60 20 52 7 -4 -6 1 -8 14 -4 11 4 23 2 27 -3 3 -6 0 -9 -7 -8 -7 2
-10 2 -5 0 4 -3 7 -9 7 -14 0 -6 -4 -7 -10 -4 -6 4 -7 -1 -3 -11 5 -14 8 -12
20 10 8 15 11 32 7 39 -5 9 -4 9 6 0 7 -6 19 -9 28 -5 11 4 14 1 9 -11 -3 -9
-2 -19 4 -22 5 -4 6 -11 3 -17 -4 -7 -10 -5 -16 6 -5 9 -6 21 -3 26 3 5 0 7
-8 4 -7 -2 -14 -11 -14 -19 0 -8 4 -12 8 -10 4 3 10 -2 13 -11 6 -15 8 -15 24
0 24 21 38 21 21 -1 -13 -16 -12 -17 3 -5 21 17 13 42 -13 37 -11 -2 -17 0
-14 6 4 5 10 7 15 4 4 -3 11 1 13 7 4 10 6 10 6 0 1 -7 6 -10 13 -6 6 4 8 3 5
-4 -5 -7 8 -9 39 -7 37 3 45 1 40 -11 -3 -8 -1 -14 5 -14 6 0 7 -5 4 -10 -9
-15 -27 -1 -21 17 4 9 2 11 -6 6 -19 -11 -48 -11 -42 1 3 6 -3 0 -14 -13 -19
-24 -23 -44 -9 -57 3 -4 5 3 2 15 -2 13 3 25 15 31 28 15 37 12 14 -5 -10 -8
-14 -15 -9 -15 6 0 17 6 23 12 10 10 15 10 21 -1 5 -7 20 -15 35 -16 23 -3 31
5 27 28 0 4 4 7 10 7 5 0 7 5 3 11 -4 8 0 8 15 0 11 -7 21 -9 21 -5 0 3 6 1
14 -5 11 -9 15 -9 18 1 4 10 8 10 19 2 8 -6 22 -10 31 -9 9 2 25 -6 35 -18 10
-11 12 -17 4 -12 -10 5 -12 4 -7 -4 12 -19 27 -2 16 19 -8 16 -8 18 5 14 8 -3
12 -10 9 -15 -8 -14 30 -11 45 4 9 7 11 7 8 1 -4 -7 0 -15 9 -18 21 -8 26 -8
20 2 -6 9 24 9 39 0 6 -3 22 -4 38 -2 15 1 27 -2 27 -7 0 -5 3 -8 8 -8 16 3
32 -1 32 -9 0 -4 -9 -8 -20 -9 -11 -1 -20 2 -20 7 0 4 -11 7 -25 6 -13 -2 -22
0 -20 4 6 9 -54 5 -79 -5 -13 -6 -17 -5 -12 3 3 6 1 14 -5 18 -8 5 -9 3 -4 -6
5 -9 2 -10 -12 -6 -13 4 -25 0 -34 -11 -8 -9 -9 -14 -2 -10 6 4 13 4 16 0 2
-5 2 -2 1 4 -4 17 0 16 49 -7 23 -12 34 -14 24 -7 -16 13 -16 15 -1 21 20 8
24 8 23 -1 -3 -20 2 -34 11 -28 6 3 10 -2 11 -12 0 -13 2 -14 6 -4 3 8 -2 20
-11 27 -10 7 -13 15 -7 18 5 4 16 -3 24 -15 9 -13 17 -16 22 -10 3 6 1 11 -6
11 -7 0 -10 2 -7 5 3 3 13 3 22 -1 12 -5 14 -10 6 -19 -8 -9 -8 -15 0 -20 6
-4 9 -1 8 6 -2 6 3 14 11 17 9 3 11 0 6 -9 -5 -8 0 -6 12 3 22 20 44 25 25 6
-7 -7 -12 -16 -12 -22 0 -5 6 -1 14 10 10 12 11 23 5 31 -6 7 -6 13 -1 17 6 3
15 -1 22 -10 9 -10 15 -12 20 -4 5 8 9 7 13 -3 4 -10 0 -14 -11 -13 -17 3 -41
-20 -42 -38 0 -6 7 -1 15 10 12 15 16 16 23 6 8 -11 10 -11 15 2 4 9 12 16 18
16 8 0 8 -4 -1 -15 -6 -8 -9 -19 -6 -24 9 -14 36 -2 36 15 0 18 14 18 30 -1 7
-9 21 -13 31 -10 17 6 47 -29 41 -48 -1 -5 2 -6 8 -2 6 4 2 18 -12 38 -13 18
-21 34 -20 37 2 2 -2 6 -10 8 -11 3 -11 2 0 -6 11 -7 10 -11 -4 -16 -9 -3 -19
-4 -22 -1 -3 3 -2 5 2 5 4 0 2 10 -5 21 -9 17 -8 20 3 13 7 -5 22 -9 33 -9 11
0 25 -3 30 -6 6 -3 27 -5 47 -4 28 0 34 -3 26 -12 -8 -10 -6 -13 6 -13 9 0 16
5 16 10 0 6 5 10 10 10 19 0 10 -17 -15 -28 -30 -14 -35 -15 -34 -4 3 20 -2
32 -12 26 -8 -4 -7 -9 2 -16 11 -8 11 -9 -1 -5 -8 2 -14 10 -12 16 1 6 -2 11
-8 11 -5 0 -10 -6 -10 -12 0 -9 -4 -8 -10 2 -5 8 -10 11 -10 5 1 -5 7 -19 15
-29 8 -11 15 -15 15 -8 0 6 7 9 15 6 8 -4 13 -9 11 -13 -3 -4 4 -7 14 -7 10 0
16 5 13 10 -4 5 1 7 11 3 10 -4 15 -3 11 3 -3 6 -2 10 4 10 5 0 14 -8 20 -17
7 -14 12 -15 24 -5 12 10 19 8 39 -15 13 -15 31 -29 39 -31 7 -1 2 7 -14 19
-15 11 -25 25 -21 30 8 13 24 11 22 -3 -2 -8 5 -12 16 -10 13 2 16 -1 10 -10
-6 -10 -4 -10 9 1 15 12 20 11 35 -3 10 -9 23 -16 28 -16 5 0 2 5 -6 10 -8 5
-10 10 -4 10 7 0 15 7 18 16 4 10 2 13 -7 7 -17 -11 -37 -13 -37 -3 0 5 -11 7
-25 5 -14 -1 -28 1 -30 6 -3 4 -21 6 -40 5 -19 -2 -38 0 -41 5 -3 5 -11 6 -17
2 -8 -4 -7 -1 1 9 7 9 21 15 30 13 9 -2 17 -4 17 -5 0 -4 44 -12 77 -13 20 -1
34 -5 32 -9 -3 -5 8 -6 25 -3 29 5 31 3 27 -20 -3 -13 0 -28 6 -31 6 -4 5 -10
-3 -15 -10 -6 -10 -9 -2 -9 15 0 35 35 26 44 -3 3 -1 6 6 6 7 0 10 4 7 9 -3 5
9 7 27 4 17 -2 42 -5 54 -5 17 -2 20 -5 11 -15 -7 -9 -15 -10 -23 -3 -6 5 -21
8 -34 5 -15 -3 -19 0 -15 8 4 7 3 8 -1 4 -12 -10 -15 -38 -4 -31 5 3 9 -1 9
-8 0 -8 5 -6 11 5 5 9 14 17 20 17 5 0 3 -10 -6 -23 -13 -21 -13 -23 5 -23 13
0 16 4 10 12 -6 6 -7 14 -3 18 4 4 15 -8 25 -26 15 -26 17 -27 12 -8 -6 22 -5
23 9 12 11 -10 16 -10 19 -1 9 28 43 17 40 -13 -1 -3 5 -9 14 -12 12 -4 12 -2
4 14 -16 30 -11 37 10 11 11 -12 17 -28 13 -34 -3 -6 -1 -7 5 -3 6 4 9 13 5
22 -7 19 17 15 34 -6 9 -12 14 -13 24 -2 18 17 27 15 32 -5 4 -17 5 -17 6 0 0
10 5 16 11 12 5 -3 7 -13 4 -23 -3 -9 1 -7 8 6 8 12 17 20 21 16 4 -4 2 -13
-4 -21 -9 -9 -8 -13 0 -13 6 0 11 5 11 11 0 5 4 8 9 5 5 -4 8 2 6 11 -1 10 -7
17 -12 16 -5 -1 -10 4 -10 10 0 7 8 13 18 13 10 0 16 -3 13 -7 -5 -9 16 -59
25 -59 3 0 13 4 21 10 9 5 19 5 28 -2 9 -8 16 -8 24 0 7 7 8 12 3 12 -6 0 -3
5 5 10 12 7 10 9 -8 7 -12 0 -22 -4 -22 -7 0 -4 -7 -7 -16 -7 -15 0 -15 1 0
12 8 7 12 16 9 21 -4 5 -2 4 6 -3 7 -6 19 -9 26 -7 22 9 27 -14 10 -48 -15
-30 -15 -31 0 -13 16 20 16 20 31 1 12 -17 14 -18 14 -3 0 9 -5 17 -12 17 -6
0 -9 2 -6 5 9 10 38 -7 31 -18 -3 -6 -1 -7 6 -3 6 4 18 2 26 -4 12 -10 16 -9
20 2 6 15 35 21 35 6 0 -4 5 -8 11 -8 8 0 8 5 -1 15 -8 10 -9 15 -2 15 6 0 15
-8 21 -17 8 -15 12 -16 22 -5 19 18 33 14 18 -6 -11 -14 -10 -13 9 2 12 11 22
14 22 8 0 -7 5 -12 12 -12 9 0 9 3 0 12 -19 19 -14 32 6 17 14 -11 15 -11 5 1
-19 21 -16 34 5 19 9 -7 14 -9 10 -5 -4 5 0 15 10 22 10 8 12 13 5 14 -7 0
-13 7 -13 16 0 13 3 14 14 5 10 -8 16 -9 21 -1 3 6 11 8 16 5 5 -4 9 -1 9 5 0
7 -7 10 -15 7 -8 -4 -17 -2 -20 3 -4 6 2 10 12 11 11 0 13 3 5 6 -7 3 -19 -1
-27 -7 -8 -7 -15 -9 -15 -4 0 13 16 36 24 35 20 -3 25 1 19 16 -5 12 -3 14 8
8 12 -8 12 -6 0 8 -12 15 -11 20 4 37 9 10 15 25 12 32 -4 9 -6 7 -6 -4 -1 -9
-5 -19 -10 -22 -5 -3 -8 8 -7 24 1 23 5 29 21 26 11 -2 14 -1 7 1 -7 3 -10 8
-8 12 3 4 -4 7 -13 7 -14 0 -18 -7 -16 -27 2 -26 1 -27 -34 -20 -2 1 1 7 6 13
6 7 9 21 8 30 -2 10 1 20 5 23 5 3 7 12 3 21 -4 12 1 14 28 10 19 -3 28 -3 21
0 -6 3 -9 10 -6 15 4 6 10 6 18 0 9 -8 13 -7 13 4 0 8 -3 13 -6 11 -9 -6 -31
21 -24 28 3 3 12 1 19 -5 9 -7 12 -6 10 8 -2 10 -9 18 -16 18 -7 0 -15 5 -17
12 -4 12 14 12 34 0 6 -4 15 -3 18 3 4 6 1 9 -6 8 -6 -2 -12 9 -13 24 -1 24 2
27 21 23 13 -2 21 0 18 6 -4 5 -10 7 -14 5 -12 -8 -34 11 -38 33 -1 11 2 23 7
26 6 4 7 11 4 17 -5 8 -1 9 12 4 10 -4 15 -4 11 0 -4 4 1 13 11 21 16 13 15
13 -3 5 -11 -5 -25 -7 -32 -5 -8 3 -11 -3 -8 -17 3 -14 0 -18 -8 -14 -7 4 -9
4 -5 -1 4 -4 3 -14 -3 -22 -9 -10 -8 -13 2 -13 11 0 11 -2 -1 -10 -13 -8 -13
-10 -1 -10 11 0 10 -4 -4 -14 -17 -12 -17 -16 -6 -30 12 -14 12 -16 -2 -10
-12 4 -15 16 -13 42 3 21 5 38 6 40 2 1 3 10 4 20 0 11 8 27 16 37 14 17 13
18 -2 12 -10 -3 -18 -2 -18 3 0 6 7 10 16 10 10 0 12 5 7 13 -11 18 -13 40 -4
52 5 5 7 17 6 25 -2 9 5 16 14 16 9 0 18 -9 18 -19 2 -16 0 -17 -14 -5 -11 8
-14 8 -10 1 4 -6 3 -14 -3 -18 -5 -3 -10 -12 -10 -18 0 -7 7 -4 14 6 8 11 17
14 20 8 4 -5 1 -13 -6 -18 -7 -4 -14 -18 -14 -30 -1 -16 3 -20 19 -17 24 4 48
24 30 24 -7 0 -15 -5 -18 -10 -4 -6 -11 -7 -17 -4 -6 4 -1 12 13 20 13 7 19
13 12 14 -14 0 -9 38 7 54 7 7 3 17 -12 33 -25 27 -14 31 16 6 l21 -18 -20 24
c-18 22 -18 24 -2 18 15 -6 16 -4 7 13 -13 25 -13 33 3 24 6 -4 3 3 -8 16
l-20 23 23 -7 c14 -5 22 -3 22 4 0 6 -4 8 -10 5 -17 -11 -11 17 8 32 15 13 15
13 -5 4 -30 -15 -32 -14 -29 13 2 18 -1 23 -13 19 -12 -4 -13 -3 -3 5 17 12
17 22 0 33 -8 5 -9 9 -2 9 7 0 10 13 9 30 -3 35 14 53 35 40 13 -9 13 -10 0
-10 -13 0 -13 -1 0 -10 12 -8 12 -10 1 -10 -8 0 -11 -3 -8 -7 4 -3 2 -12 -4
-20 -6 -7 -8 -13 -4 -13 4 0 2 -6 -4 -14 -9 -11 -8 -15 5 -20 9 -4 19 -4 22
-1 3 3 0 5 -6 5 -7 0 -12 5 -12 11 0 5 6 7 13 3 8 -5 8 -2 -2 9 -15 19 -1 23
17 5 9 -9 12 -9 12 0 0 7 -4 12 -10 12 -5 0 -9 11 -8 25 2 16 7 24 15 21 25
-10 13 4 -17 19 -17 9 -36 13 -43 8 -9 -5 -9 -3 -1 8 6 8 10 22 9 31 -2 10 1
20 6 24 5 3 7 9 4 14 -3 5 -1 18 5 29 7 14 7 22 0 26 -8 5 -8 11 -1 19 6 7 7
16 3 20 -4 4 -1 6 7 4 7 -2 15 5 16 16 4 23 22 42 32 33 3 -4 -2 -14 -13 -22
-18 -14 -17 -14 8 -4 23 10 25 14 15 30 -9 14 -8 21 2 31 11 11 12 10 6 -1 -5
-10 -4 -12 4 -7 6 4 9 12 6 17 -4 5 16 39 42 75 26 36 53 73 58 82 6 9 15 21
20 27 6 7 18 23 28 36 9 13 53 73 97 133 44 60 80 114 81 120 1 6 2 24 4 40 1
16 -2 46 -6 65 -4 20 -11 52 -14 71 -17 90 -25 136 -29 150 -3 8 -5 18 -5 21
-2 12 -60 67 -90 85 -17 10 -31 22 -31 27 0 4 -4 6 -9 3 -5 -3 -11 1 -15 9 -3
8 -12 15 -21 15 -8 0 -15 3 -15 8 0 4 -21 20 -48 37 -26 16 -49 32 -52 35 -12
13 -181 130 -189 130 -5 0 -11 7 -15 15 -7 20 -55 15 -83 -10 -13 -11 -23 -23
-23 -26 0 -4 -9 -18 -20 -31 -11 -12 -56 -72 -101 -133 l-80 -110 6 75 c7 77
-3 120 -31 150 -8 8 -24 26 -35 40 -80 98 -164 180 -192 189 -18 5 -61 12 -97
16 -36 3 -85 7 -110 10 -51 5 -135 13 -230 20 -36 3 -86 8 -112 10 -39 4 -52
1 -68 -15z m805 -330 c3 -5 -1 -10 -10 -10 -9 0 -13 5 -10 10 3 6 8 10 10 10
2 0 7 -4 10 -10z m698 -735 c-10 -13 -21 -25 -25 -25 -5 0 -8 -6 -8 -14 0 -8
-4 -17 -9 -20 -20 -13 -3 26 24 54 35 36 42 39 18 5z m-233 -735 c-8 -5 -6 -9
7 -14 17 -7 17 -8 0 -21 -16 -11 -16 -13 -1 -19 13 -5 14 -9 5 -20 -9 -11 -9
-15 1 -18 8 -3 4 -9 -10 -17 l-24 -13 22 -23 c14 -15 18 -25 11 -30 -7 -3 -10
-1 -9 6 2 7 -2 13 -9 14 -25 1 -35 22 -18 39 12 12 13 16 3 16 -8 0 -9 3 -2 8
5 4 10 25 9 47 -1 49 4 67 17 59 6 -4 6 -9 -2 -14z m-22 -415 c1 -13 -4 -27
-11 -31 -6 -4 -9 -4 -5 1 4 4 3 16 -2 26 -7 12 -6 19 3 22 6 3 12 6 12 6 0 1
2 -10 3 -24z m-33 -35 c-4 -6 -2 -17 5 -25 8 -9 8 -15 0 -20 -8 -5 -8 -11 0
-20 14 -17 -10 -37 -30 -25 -12 8 -12 10 -1 10 10 0 11 3 2 14 -7 9 -8 17 -2
20 5 3 8 14 7 24 -2 9 2 20 8 24 15 11 18 10 11 -2z m-1857 -188 c-3 -17 -17
-32 -31 -32 -5 0 -5 6 0 13 8 12 9 17 12 38 0 5 6 7 11 4 6 -4 9 -14 8 -23z
m1837 -41 c3 -5 1 -12 -4 -15 -5 -4 -12 0 -14 6 -4 8 -6 7 -6 -4 -1 -9 5 -18
12 -20 8 -2 4 -12 -12 -28 -20 -21 -23 -22 -16 -5 4 11 7 27 7 35 -1 35 19 53
33 31z m-1312 -24 c-4 -6 0 -8 9 -4 10 3 24 -3 35 -16 18 -22 18 -22 -3 -4
-20 17 -21 16 -33 -9 -6 -15 -14 -24 -18 -21 -3 4 0 13 7 22 10 12 9 16 -4 21
-20 8 -21 21 -1 21 8 0 11 -5 8 -10z m477 -77 c0 -5 -5 -10 -11 -10 -5 0 -7 5
-4 10 3 6 8 10 11 10 2 0 4 -4 4 -10z m785 0 c-3 -5 -1 -10 6 -10 9 0 9 -3 0
-14 -8 -10 -9 -16 -1 -21 6 -3 8 -11 4 -16 -3 -5 -10 -7 -15 -4 -5 4 -14 -5
-20 -19 -6 -13 -17 -22 -24 -20 -7 3 -16 0 -20 -6 -5 -8 -13 -6 -26 6 -15 14
-21 14 -34 4 -8 -7 -15 -9 -15 -4 0 5 -7 0 -15 -10 -8 -11 -15 -14 -15 -8 0 7
-7 12 -15 12 -8 0 -15 5 -15 11 0 6 7 9 15 6 8 -4 17 -1 21 5 4 6 3 8 -4 4 -6
-3 -13 -3 -16 2 -7 12 78 9 86 -3 5 -6 8 -6 8 1 0 7 7 15 16 18 8 3 12 2 9 -3
-3 -5 -1 -12 5 -16 5 -3 11 -1 11 4 1 6 2 15 3 20 2 13 16 26 29 26 7 0 13 7
13 15 3 26 4 30 10 30 3 0 2 -4 -1 -10z m-642 -17 c-6 -16 -5 -16 11 -4 14 12
19 12 25 2 10 -16 22 -16 32 1 7 10 9 10 9 0 0 -8 9 -11 26 -8 16 3 27 0 31
-10 5 -13 7 -13 14 -2 7 10 9 10 9 1 0 -7 5 -13 11 -13 5 0 7 6 3 13 -5 9 -4
9 6 0 7 -6 19 -9 26 -6 8 3 14 -1 14 -11 0 -12 -7 -15 -27 -12 -15 3 -33 0
-41 -6 -10 -9 -16 -8 -22 3 -5 8 -18 14 -28 14 -10 0 -25 5 -33 11 -12 9 -54
12 -61 4 -5 -5 -48 -7 -48 -3 0 4 42 42 47 43 1 0 -1 -8 -4 -17z m317 -41 c0
-4 -7 -15 -15 -25 -13 -18 -14 -18 -24 1 -6 11 -8 21 -6 24 7 7 45 7 45 0z
m118 -24 c-2 -6 -14 -12 -25 -13 -12 -1 -19 3 -17 10 6 14 46 17 42 3z"/>
<path d="M2812 735 c4 -4 3 -14 -3 -21 -7 -8 -7 -14 1 -19 6 -3 7 -11 4 -17
-4 -7 -2 -8 5 -4 8 6 9 12 2 20 -7 9 -7 16 0 23 8 8 7 13 -3 18 -7 5 -10 5 -6
0z"/>
<path d="M2719 387 c0 -1 -3 -13 -5 -27 l-5 -25 16 23 c9 12 22 19 28 16 7 -4
8 -3 4 1 -6 8 -36 16 -38 12z"/>
<path d="M2587 331 c-10 -14 -10 -14 4 -4 9 7 18 10 21 7 3 -3 8 -1 12 4 9 16
-24 9 -37 -7z"/>
<path d="M2666 341 c-4 -5 -2 -12 3 -15 5 -4 12 -2 15 3 4 5 2 12 -3 15 -5 4
-12 2 -15 -3z"/>
<path d="M2230 394 c0 -20 27 -37 36 -23 4 7 3 9 -4 5 -6 -3 -15 2 -21 11 -6
10 -11 13 -11 7z"/>
<path d="M2396 358 c3 -5 10 -6 15 -3 13 9 11 12 -6 12 -8 0 -12 -4 -9 -9z"/>
<path d="M2995 1559 c-4 -6 -5 -12 -2 -15 2 -3 7 2 10 11 7 17 1 20 -8 4z"/>
<path d="M2930 1533 c-15 -10 -18 -19 -12 -25 7 -7 7 -19 2 -34 -5 -13 -7 -24
-4 -24 4 0 2 -6 -3 -12 -10 -13 -9 -45 1 -56 3 -3 6 1 6 9 0 10 2 11 8 2 5 -9
12 -6 21 10 13 20 13 21 -2 9 -14 -12 -15 -10 -13 14 2 16 9 30 16 32 7 3 10
0 7 -6 -4 -5 1 -16 11 -23 16 -13 16 -13 2 5 -14 18 -13 19 5 13 16 -6 15 -3
-5 12 -18 14 -27 16 -32 8 -5 -8 -8 -7 -8 4 0 24 11 30 29 17 12 -9 11 -7 -2
7 -16 18 -16 20 4 31 17 9 18 12 6 17 -8 3 -25 -1 -37 -10z m7 -18 c0 -8 -4
-12 -9 -9 -5 3 -6 10 -3 15 9 13 12 11 12 -6z m-7 -85 c0 -5 -5 -10 -11 -10
-5 0 -7 5 -4 10 3 6 8 10 11 10 2 0 4 -4 4 -10z"/>
<path d="M2970 1513 c0 -5 5 -15 10 -23 7 -12 9 -10 7 8 -1 19 -17 33 -17 15z"/>
<path d="M2955 1389 c-8 -12 0 -22 20 -25 8 -1 13 2 9 7 -3 5 -10 6 -16 3 -7
-5 -9 -1 -5 9 7 19 2 23 -8 6z"/>
<path d="M2899 1358 c-4 -12 -5 -57 0 -53 6 6 10 55 4 55 -1 0 -3 -1 -4 -2z"/>
<path d="M2928 1243 c-10 -2 -18 -9 -18 -14 0 -6 8 -5 20 1 11 6 20 13 20 15
0 3 -1 4 -2 4 -2 -1 -11 -3 -20 -6z"/>
<path d="M2907 989 c7 -7 15 -10 18 -7 3 3 -2 9 -12 12 -14 6 -15 5 -6 -5z"/>
<path d="M2877 873 c-10 -9 -9 -23 1 -23 5 0 9 7 9 15 0 17 -1 18 -10 8z"/>
<path d="M2896 732 c-3 -5 1 -9 9 -9 8 0 12 4 9 9 -3 4 -7 8 -9 8 -2 0 -6 -4
-9 -8z"/>
<path d="M356 665 c-9 -26 -7 -32 5 -12 6 10 9 21 6 23 -2 3 -7 -2 -11 -11z"/>
<path d="M395 650 c-3 -5 -1 -10 4 -10 6 0 11 5 11 10 0 6 -2 10 -4 10 -3 0
-8 -4 -11 -10z"/>
<path d="M425 645 c-3 -8 -7 -22 -10 -31 -3 -8 -1 -13 4 -10 5 3 11 17 13 31
6 27 0 34 -7 10z"/>
<path d="M465 639 c-10 -15 1 -23 20 -15 9 3 13 10 10 16 -8 13 -22 13 -30 -1z"/>
<path d="M525 642 c-16 -11 -41 -47 -28 -39 6 4 13 2 16 -5 2 -7 3 -5 2 5 -2
9 0 17 5 17 4 0 10 7 14 15 6 17 5 18 -9 7z"/>
<path d="M2803 644 c4 -4 2 -13 -4 -20 -7 -9 -6 -12 7 -10 24 4 29 22 7 30 -9
4 -14 4 -10 0z"/>
<path d="M2853 643 c-15 -5 -17 -23 -4 -23 5 0 11 7 15 15 3 8 4 15 3 14 -1 0
-8 -3 -14 -6z"/>
<path d="M659 602 c-7 -11 -17 -19 -23 -18 -6 2 -8 1 -3 -1 4 -3 4 -10 0 -16
-3 -6 4 -3 16 6 13 8 30 13 37 10 18 -7 18 11 0 27 -12 9 -17 8 -27 -8z m25 0
c3 -5 -1 -9 -9 -9 -8 0 -12 4 -9 9 3 4 7 8 9 8 2 0 6 -4 9 -8z"/>
<path d="M595 559 c-4 -6 -5 -12 -2 -15 2 -3 7 2 10 11 7 17 1 20 -8 4z"/>
<path d="M677 553 c3 -7 6 -13 8 -13 1 0 7 6 13 13 8 10 6 13 -7 13 -11 0 -17
-6 -14 -13z"/>
<path d="M1002 558 c9 -7 25 -22 35 -33 10 -12 17 -19 16 -16 -2 2 5 10 15 17
18 13 47 0 36 -17 -3 -5 2 -6 10 -3 9 3 14 14 13 25 -4 25 -17 37 -17 15 0 -9
-5 -14 -10 -11 -6 4 -7 11 -4 17 4 6 2 8 -4 4 -6 -3 -14 -2 -17 4 -5 8 -11 8
-19 1 -7 -6 -16 -8 -20 -4 -3 4 -16 8 -29 10 -19 3 -20 2 -5 -9z m54 -7 c8 7
14 7 18 0 4 -6 -2 -14 -12 -20 -14 -7 -21 -5 -31 12 -11 18 -11 19 0 10 9 -9
16 -9 25 -2z"/>
<path d="M740 552 c0 -5 7 -9 15 -9 8 0 12 4 9 9 -3 4 -9 8 -15 8 -5 0 -9 -4
-9 -8z"/>
<path d="M990 540 c0 -5 5 -10 11 -10 5 0 7 5 4 10 -3 6 -8 10 -11 10 -2 0 -4
-4 -4 -10z"/>
<path d="M2835 519 c-4 -6 -5 -12 -2 -15 2 -3 7 2 10 11 7 17 1 20 -8 4z"/>
<path d="M990 516 c0 -2 9 -6 20 -9 11 -3 18 -1 14 4 -5 9 -34 13 -34 5z"/>
<path d="M1075 510 c-3 -5 -1 -10 4 -10 6 0 11 5 11 10 0 6 -2 10 -4 10 -3 0
-8 -4 -11 -10z"/>
<path d="M1120 490 c-9 -6 -10 -10 -3 -10 6 0 15 5 18 10 8 12 4 12 -15 0z"/>
<path d="M1193 485 c0 -8 4 -12 9 -9 5 3 6 10 3 15 -9 13 -12 11 -12 -6z"/>
<path d="M2836 463 c-4 -10 0 -23 11 -32 15 -15 16 -15 5 0 -7 9 -10 24 -6 33
3 9 4 16 1 16 -3 0 -8 -8 -11 -17z"/>
<path d="M1754 462 c4 -3 14 -7 22 -8 9 -1 13 0 10 4 -4 3 -14 7 -22 8 -9 1
-13 0 -10 -4z"/>
<path d="M1530 444 c8 -10 15 -20 16 -22 1 -2 4 1 7 5 3 5 -4 15 -16 23 -21
12 -21 12 -7 -6z"/>
<path d="M1416 432 c-3 -5 1 -9 9 -9 8 0 12 4 9 9 -3 4 -7 8 -9 8 -2 0 -6 -4
-9 -8z"/>
<path d="M1576 412 c-3 -5 1 -9 9 -9 8 0 12 4 9 9 -3 4 -7 8 -9 8 -2 0 -6 -4
-9 -8z"/>
<path d="M1713 405 c0 -8 4 -12 9 -9 4 3 8 9 8 15 0 5 -4 9 -8 9 -5 0 -9 -7
-9 -15z"/>
<path d="M1780 400 c6 -11 13 -20 16 -20 2 0 0 9 -6 20 -6 11 -13 20 -16 20
-2 0 0 -9 6 -20z"/>
<path d="M1888 382 c9 -10 19 -17 21 -16 6 5 -20 34 -30 34 -5 0 -1 -8 9 -18z"/>
<path d="M1980 376 c0 -2 7 -7 16 -10 8 -3 12 -2 9 4 -6 10 -25 14 -25 6z"/>
<path d="M2214 328 c-4 -7 -4 -10 1 -6 4 4 15 2 24 -5 14 -11 14 -10 2 6 -16
20 -18 21 -27 5z"/>
<path d="M2776 331 c-3 -4 6 -7 19 -7 14 0 22 2 19 5 -8 8 -34 10 -38 2z"/>
<path d="M2275 310 c3 -5 8 -10 11 -10 2 0 4 5 4 10 0 6 -5 10 -11 10 -5 0 -7
-4 -4 -10z"/>
<path d="M2365 310 c3 -5 8 -10 11 -10 2 0 4 5 4 10 0 6 -5 10 -11 10 -5 0 -7
-4 -4 -10z"/>
<path d="M2425 310 c3 -5 8 -10 11 -10 2 0 4 5 4 10 0 6 -5 10 -11 10 -5 0 -7
-4 -4 -10z"/>
</g>
</svg>
